<svg width="44" height="44" viewBox="0 0 44 44" fill="none" xmlns="http://www.w3.org/2000/svg">
<rect width="44" height="44" rx="7" fill="#ED6E5D"/>
<g clip-path="url(#clip0_1037_53)">
<mask id="mask0_1037_53" style="mask-type:luminance" maskUnits="userSpaceOnUse" x="6" y="6" width="32" height="32">
<path d="M6.76855 6.76855H37.2301V37.2301H6.76855V6.76855Z" fill="white"/>
</mask>
<g mask="url(#mask0_1037_53)">
<path d="M34.6916 15.6532H25.807V13.1147H34.6916V15.6532ZM36.8823 28.3455C36.3213 29.9917 34.3071 32.1532 30.408 32.1532C26.5064 32.1532 23.346 29.9587 23.346 24.9503C23.346 19.9876 26.2969 17.4365 30.2836 17.4365C34.1954 17.4365 36.5841 19.6982 37.1057 23.0541C37.2047 23.6963 37.2441 24.5619 37.2263 25.7703H27.0382C27.2032 29.8458 31.4589 29.9739 32.8614 28.3455H36.8823ZM27.127 23.2686H33.4288C33.2955 21.3051 31.9869 20.4522 30.2849 20.4522C28.4242 20.4522 27.3948 21.4269 27.127 23.2686ZM14.9754 32.138H6.76855V13.1414H15.5935C22.5438 13.2442 22.6758 20.0511 19.0458 21.9067C23.4386 23.5059 23.5859 32.138 14.9754 32.138ZM10.5762 20.7301H15.1252C18.3084 20.7301 18.8136 16.9224 14.7292 16.9224H10.5762V20.7301ZM14.8802 24.5378H10.5762V28.3658H14.8167C18.6943 28.3658 18.4569 24.5378 14.8802 24.5378Z" fill="white"/>
</g>
</g>
<defs>
<clipPath id="clip0_1037_53">
<rect width="30.4615" height="30.4615" fill="white" transform="translate(6.76855 6.76855)"/>
</clipPath>
</defs>
</svg>
