<svg width="14" height="15" viewBox="0 0 14 15" fill="none" xmlns="http://www.w3.org/2000/svg">
<path d="M12.2318 6.72529C12.3784 6.57355 12.4607 6.36776 12.4607 6.15317C12.4607 5.93859 12.3784 5.73279 12.2318 5.58106C12.0853 5.42932 11.8866 5.34408 11.6793 5.34408C11.4721 5.34408 11.2734 5.42932 11.1269 5.58106L7.78 9.04808V1.30769C7.78 1.09348 7.69782 0.88804 7.55154 0.736568C7.40526 0.585097 7.20687 0.5 7 0.5C6.79313 0.5 6.59473 0.585097 6.44846 0.736568C6.30218 0.88804 6.22 1.09348 6.22 1.30769V9.04808L2.87185 5.5824C2.72532 5.43067 2.52658 5.34543 2.31935 5.34543C2.11212 5.34543 1.91338 5.43067 1.76685 5.5824C1.62032 5.73414 1.538 5.93993 1.538 6.15452C1.538 6.3691 1.62032 6.5749 1.76685 6.72663L6.44685 11.5728C6.51931 11.6481 6.60542 11.7078 6.70023 11.7486C6.79504 11.7894 6.89669 11.8103 6.99935 11.8103C7.10201 11.8103 7.20366 11.7894 7.29847 11.7486C7.39328 11.7078 7.47939 11.6481 7.55185 11.5728L12.2318 6.72529ZM12.72 14.5H1.28C1.07313 14.5 0.874735 14.4149 0.728457 14.2634C0.582178 14.112 0.5 13.9065 0.5 13.6923C0.5 13.4781 0.582178 13.2727 0.728457 13.1212C0.874735 12.9697 1.07313 12.8846 1.28 12.8846H12.72C12.9269 12.8846 13.1253 12.9697 13.2715 13.1212C13.4178 13.2727 13.5 13.4781 13.5 13.6923C13.5 13.9065 13.4178 14.112 13.2715 14.2634C13.1253 14.4149 12.9269 14.5 12.72 14.5Z" fill="white"/>
</svg>
