<svg width="44" height="44" viewBox="0 0 44 44" fill="none" xmlns="http://www.w3.org/2000/svg">
<rect width="44" height="44" rx="7" fill="#ED6E5D"/>
<g clip-path="url(#clip0_1037_62)">
<path d="M8.54995 22.0341H8.54982L8.55008 22.0403C9.28569 39.9223 34.717 39.917 35.4498 22.0403L35.4499 22.0403V22.0341C35.4499 14.5972 29.4189 8.54995 21.9999 8.54995C14.581 8.54995 8.54995 14.5972 8.54995 22.0341ZM22.7455 22.01L22.7453 22.0101C17.2721 23.782 14.1753 28.3826 13.5356 29.4152C11.825 27.445 10.7887 24.8684 10.7887 22.0579C10.7887 21.9902 10.7887 21.924 10.7897 21.8596C11.8115 21.8661 16.9411 21.8318 22.2421 20.2639C22.5194 20.809 22.7872 21.3659 23.034 21.9195C22.9359 21.9489 22.84 21.9796 22.7455 22.01ZM25.5419 21.421C25.2695 20.7486 24.9764 20.0749 24.6579 19.421C28.3862 17.8594 30.2819 15.7372 30.7975 15.0939C32.2494 16.9384 33.1444 19.2513 33.2023 21.7664C32.3314 21.5938 28.9645 21.014 25.5419 21.421ZM22.0004 10.8058C24.8038 10.8059 27.3647 11.8396 29.3293 13.5521C28.9281 14.0837 27.2392 16.0781 23.6474 17.4562C21.9757 14.4002 20.1612 11.8448 19.5966 11.0714C20.3697 10.904 21.1754 10.8111 22.0004 10.8058ZM17.1225 11.9297C17.5867 12.5735 19.4249 15.1644 21.1591 18.2345C16.3411 19.4864 12.0817 19.5675 11.0668 19.568C11.8232 16.2045 14.0997 13.4048 17.1225 11.9297ZM22.0058 33.2924C19.4603 33.2924 17.1063 32.4337 15.2206 30.9935C15.6341 30.2042 17.9891 26.1898 23.9273 24.0898C25.4246 28.0236 26.0749 31.3275 26.2712 32.444C24.9591 32.9934 23.516 33.2924 22.0058 33.2924ZM33.0498 23.9647C32.5338 26.9588 30.8352 29.5471 28.4602 31.2363C28.2725 30.2195 27.6664 27.1796 26.3466 23.4943C29.5435 23.0264 32.3563 23.7594 33.0498 23.9647Z" fill="white" stroke="white" stroke-width="0.3"/>
</g>
<defs>
<clipPath id="clip0_1037_62">
<rect width="28" height="28" fill="white" transform="translate(8 8)"/>
</clipPath>
</defs>
</svg>
