<svg width="27" height="18" viewBox="0 0 27 18" fill="none" xmlns="http://www.w3.org/2000/svg">
<path fill-rule="evenodd" clip-rule="evenodd" d="M27 1.17391C27 0.862572 26.8781 0.563982 26.6611 0.343831C26.4441 0.12368 26.1498 0 25.8429 0H1.15714C0.850249 0 0.555924 0.12368 0.338918 0.343831C0.121912 0.563982 -4.76837e-07 0.862572 -4.76837e-07 1.17391C-4.76837e-07 1.48525 0.121912 1.78384 0.338918 2.004C0.555924 2.22415 0.850249 2.34783 1.15714 2.34783H25.8429C26.1498 2.34783 26.4441 2.22415 26.6611 2.004C26.8781 1.78384 27 1.48525 27 1.17391ZM27 9C27 8.68866 26.8781 8.39007 26.6611 8.16992C26.4441 7.94977 26.1498 7.82609 25.8429 7.82609H8.87143C8.56453 7.82609 8.27021 7.94977 8.05321 8.16992C7.8362 8.39007 7.71429 8.68866 7.71429 9C7.71429 9.31134 7.8362 9.60993 8.05321 9.83008C8.27021 10.0502 8.56453 10.1739 8.87143 10.1739H25.8429C26.1498 10.1739 26.4441 10.0502 26.6611 9.83008C26.8781 9.60993 27 9.31134 27 9ZM27 16.8261C27 16.5147 26.8781 16.2162 26.6611 15.996C26.4441 15.7759 26.1498 15.6522 25.8429 15.6522H18.1286C17.8217 15.6522 17.5274 15.7759 17.3103 15.996C17.0933 16.2162 16.9714 16.5147 16.9714 16.8261C16.9714 17.1374 17.0933 17.436 17.3103 17.6562C17.5274 17.8763 17.8217 18 18.1286 18H25.8429C26.1498 18 26.4441 17.8763 26.6611 17.6562C26.8781 17.436 27 17.1374 27 16.8261Z" fill="#ED6E5D"/>
</svg>
