<svg width="44" height="44" viewBox="0 0 44 44" fill="none" xmlns="http://www.w3.org/2000/svg">
<rect width="44" height="44" rx="7" fill="#ED6E5D"/>
<path d="M22.3854 11.6423C19.3668 11.647 16.4733 12.8483 14.3391 14.983C12.2048 17.1176 11.0041 20.0114 11 23.0299C11.0035 26.0492 12.2043 28.9439 14.3391 31.079C16.4738 33.2142 19.3683 34.4156 22.3876 34.4197C25.4072 34.4162 28.3022 33.2151 30.4375 31.0798C32.5727 28.9446 33.7738 26.0496 33.7773 23.0299C33.7727 20.0106 32.5707 17.1164 30.4351 14.9821C28.2996 12.8477 25.4047 11.6475 22.3854 11.6445V11.6423ZM22.3854 29.9908C20.5398 29.9908 18.7698 29.2577 17.4648 27.9526C16.1598 26.6476 15.4267 24.8777 15.4267 23.0321C15.4267 21.1865 16.1598 19.4166 17.4648 18.1116C18.7698 16.8066 20.5398 16.0734 22.3854 16.0734C24.2309 16.0734 26.0009 16.8066 27.3059 18.1116C28.6109 19.4166 29.3441 21.1865 29.3441 23.0321C29.3441 24.8777 28.6109 26.6476 27.3059 27.9526C26.0009 29.2577 24.2309 29.9908 22.3854 29.9908Z" fill="white"/>
<path d="M33.7969 14.4567C35.3038 14.4567 36.5253 13.2352 36.5253 11.7283C36.5253 10.2215 35.3038 9 33.7969 9C32.2901 9 31.0686 10.2215 31.0686 11.7283C31.0686 13.2352 32.2901 14.4567 33.7969 14.4567Z" fill="white"/>
</svg>
