<svg width="62" height="64" viewBox="0 0 62 64" fill="none" xmlns="http://www.w3.org/2000/svg">
<path d="M21.9967 59.4872C16.9646 64.5192 8.80609 64.5192 3.77404 59.4872C-1.25801 54.4551 -1.25801 46.2966 3.77404 41.2645C8.80609 36.2325 16.9646 36.2325 21.9967 41.2645C27.0287 46.2966 27.0287 54.4551 21.9967 59.4872Z" fill="#89C5C3"/>
<path d="M22.2785 22.9624C17.2464 27.9945 9.08788 27.9945 4.05583 22.9624C-0.976216 17.9304 -0.976216 9.77182 4.05583 4.73978C9.08788 -0.292273 17.2464 -0.292273 22.2785 4.73978C27.3105 9.77182 27.3105 17.9304 22.2785 22.9624Z" fill="#89C5C3"/>
<path d="M57.9286 22.1668C52.8966 27.1989 44.738 27.1989 39.7059 22.1668C34.6739 17.1348 34.6739 8.97619 39.7059 3.94414C44.738 -1.08791 52.8966 -1.08791 57.9286 3.94414C62.9607 8.97619 62.9607 17.1348 57.9286 22.1668Z" fill="#ED6E5D"/>
<path d="M57.9286 58.6124C52.8966 63.6445 44.738 63.6445 39.7059 58.6124C34.6739 53.5804 34.6739 45.4218 39.7059 40.3898C44.738 35.3577 52.8966 35.3577 57.9286 40.3898C62.9607 45.4218 62.9607 53.5804 57.9286 58.6124Z" fill="#89C5C3"/>
</svg>
