<svg width="44" height="44" viewBox="0 0 44 44" fill="none" xmlns="http://www.w3.org/2000/svg">
<rect width="44" height="44" rx="7" fill="#ED6E5D"/>
<path d="M12.6667 10C11.429 10 10.242 10.5057 9.36683 11.4059C8.49167 12.3061 8 13.527 8 14.8V15.2824L22 23.0368L36 15.2848V14.8C36 13.527 35.5083 12.3061 34.6332 11.4059C33.758 10.5057 32.571 10 31.3333 10H12.6667ZM36 18.0088L22.553 25.456C22.383 25.5501 22.193 25.5994 22 25.5994C21.807 25.5994 21.617 25.5501 21.447 25.456L8 18.0088V29.2C8 30.473 8.49167 31.6939 9.36683 32.5941C10.242 33.4943 11.429 34 12.6667 34H31.3333C32.571 34 33.758 33.4943 34.6332 32.5941C35.5083 31.6939 36 30.473 36 29.2V18.0088Z" fill="white"/>
</svg>
