<svg width="182" height="185" viewBox="0 0 182 185" fill="none" xmlns="http://www.w3.org/2000/svg">
<path d="M122.585 154.268C122.585 171.241 108.826 185 91.8536 185C74.881 185 61.1219 171.241 61.1219 154.268C61.1219 137.296 74.881 123.537 91.8536 123.537C108.826 123.537 122.585 137.296 122.585 154.268Z" fill="#ED6E5D"/>
<path d="M0 92.1952C-5.31369e-07 98.2734 1.80238 104.215 5.17922 109.269C8.55607 114.323 13.3557 118.262 18.9712 120.588C24.5867 122.914 30.7658 123.522 36.7272 122.336C42.6885 121.151 48.1644 118.224 52.4623 113.926C56.7602 109.628 59.6871 104.152 60.8729 98.1907C62.0587 92.2293 61.4501 86.0502 59.1241 80.4347C56.7981 74.8193 52.8591 70.0196 47.8053 66.6428C42.7515 63.2659 36.8099 61.4636 30.7317 61.4636L30.7317 92.1953L0 92.1952Z" fill="#ED6E5D"/>
<path d="M120.244 30.7317C120.244 47.7043 106.485 61.4634 89.5119 61.4634C72.5392 61.4634 58.7802 47.7043 58.7802 30.7317C58.7802 13.7591 72.5392 0 89.5119 0C106.485 0 120.244 13.7591 120.244 30.7317Z" fill="#ED6E5D"/>
<path d="M181.708 92.1953C181.708 86.1171 179.905 80.1754 176.528 75.1216C173.152 70.0678 168.352 66.1289 162.736 63.8029C157.121 61.4769 150.942 60.8683 144.981 62.0541C139.019 63.2398 133.543 66.1668 129.245 70.4647C124.947 74.7626 122.021 80.2384 120.835 86.1998C119.649 92.1612 120.258 98.3403 122.584 103.956C124.91 109.571 128.849 114.371 133.902 117.748C138.956 121.125 144.898 122.927 150.976 122.927V92.1953H181.708Z" fill="#ED6E5D"/>
</svg>
