<svg width="183" height="185" viewBox="0 0 183 185" fill="none" xmlns="http://www.w3.org/2000/svg">
<path d="M121 75C121 67.8203 126.82 62 134 62H170C177.18 62 183 67.8203 183 75V111C183 118.18 177.18 124 170 124H134C126.82 124 121 118.18 121 111V75Z" fill="#ED6E5D"/>
<path d="M59 31C59 13.8792 72.8792 0 90 0C107.121 0 121 13.8792 121 31C121 48.1208 107.121 62 90 62C72.8792 62 59 48.1208 59 31Z" fill="#ED6E5D"/>
<path d="M0 74C0 66.8203 5.8203 61 13 61H49C56.1797 61 62 66.8203 62 74V110C62 117.18 56.1797 123 49 123H13C5.8203 123 0 117.18 0 110V74Z" fill="#ED6E5D"/>
<path d="M62 154C62 136.879 75.8792 123 93 123C110.121 123 124 136.879 124 154C124 171.121 110.121 185 93 185C75.8792 185 62 171.121 62 154Z" fill="#ED6E5D"/>
</svg>
