<svg width="182" height="185" viewBox="0 0 182 185" fill="none" xmlns="http://www.w3.org/2000/svg">
<path d="M122.585 154.268C122.585 171.241 108.826 185 91.8536 185C74.881 185 61.1219 171.241 61.1219 154.268C61.1219 137.296 74.881 123.537 91.8536 123.537C108.826 123.537 122.585 137.296 122.585 154.268Z" fill="#ED6E5D"/>
<path d="M61.4634 92.1953C61.4634 109.168 47.7043 122.927 30.7317 122.927C13.7591 122.927 0 109.168 0 92.1953C0 75.2226 13.7591 61.4636 30.7317 61.4636C47.7043 61.4636 61.4634 75.2226 61.4634 92.1953Z" fill="#ED6E5D"/>
<path d="M120.244 30.7317C120.244 47.7043 106.485 61.4634 89.5119 61.4634C72.5392 61.4634 58.7802 47.7043 58.7802 30.7317C58.7802 13.7591 72.5392 0 89.5119 0C106.485 0 120.244 13.7591 120.244 30.7317Z" fill="#ED6E5D"/>
<path d="M181.708 92.1953C181.708 109.168 167.949 122.927 150.976 122.927C134.003 122.927 120.244 109.168 120.244 92.1953C120.244 75.2226 134.003 61.4636 150.976 61.4636C167.949 61.4636 181.708 75.2226 181.708 92.1953Z" fill="#ED6E5D"/>
</svg>
