<svg width="44" height="44" viewBox="0 0 44 44" fill="none" xmlns="http://www.w3.org/2000/svg">
<rect width="44" height="44" rx="7" fill="#ED6E5D"/>
<path d="M14.8651 10.4354C14.8648 11.1835 14.5673 11.9008 14.038 12.4294C13.5088 12.9581 12.7913 13.2549 12.0432 13.2545C11.2952 13.2542 10.5779 12.9567 10.0492 12.4274C9.52055 11.8982 9.22375 11.1807 9.22412 10.4326C9.2245 9.68458 9.52201 8.96732 10.0512 8.43864C10.5804 7.90995 11.298 7.61315 12.046 7.61353C12.7941 7.6139 13.5114 7.91142 14.04 8.44063C14.5687 8.96984 14.8655 9.6874 14.8651 10.4354ZM14.9498 15.3431H9.30874V32.9995H14.9498V15.3431ZM23.8626 15.3431H18.2498V32.9995H23.8062V23.7342C23.8062 18.5726 30.5331 18.0931 30.5331 23.7342V32.9995H36.1036V21.8162C36.1036 13.1149 26.1472 13.4393 23.8062 17.7124L23.8626 15.3431Z" fill="white"/>
</svg>
